<svg width="44" height="54" viewBox="0 0 44 54" fill="none" xmlns="http://www.w3.org/2000/svg">
<g id="Layer_1" opacity="0.15" clip-path="url(#clip0_45_8481)">
<path id="Vector" d="M3.48945 7.07715C5.41663 7.07715 6.97891 5.49287 6.97891 3.53857C6.97891 1.58427 5.41663 0 3.48945 0C1.56228 0 0 1.58427 0 3.53857C0 5.49287 1.56228 7.07715 3.48945 7.07715Z" fill="#002850"/>
<path id="Vector_2" d="M12.7497 7.07715C14.6769 7.07715 16.2392 5.49287 16.2392 3.53857C16.2392 1.58427 14.6769 0 12.7497 0C10.8225 0 9.26025 1.58427 9.26025 3.53857C9.26025 5.49287 10.8225 7.07715 12.7497 7.07715Z" fill="#002850"/>
<path id="Vector_3" d="M22.0002 7.07715C23.9274 7.07715 25.4897 5.49287 25.4897 3.53857C25.4897 1.58427 23.9274 0 22.0002 0C20.073 0 18.5107 1.58427 18.5107 3.53857C18.5107 5.49287 20.073 7.07715 22.0002 7.07715Z" fill="#002850"/>
<path id="Vector_4" d="M31.2502 7.07715C33.1774 7.07715 34.7397 5.49287 34.7397 3.53857C34.7397 1.58427 33.1774 0 31.2502 0C29.323 0 27.7607 1.58427 27.7607 3.53857C27.7607 5.49287 29.323 7.07715 31.2502 7.07715Z" fill="#002850"/>
<path id="Vector_5" d="M40.5007 7.07715C42.4279 7.07715 43.9901 5.49287 43.9901 3.53857C43.9901 1.58427 42.4279 0 40.5007 0C38.5735 0 37.0112 1.58427 37.0112 3.53857C37.0112 5.49287 38.5735 7.07715 40.5007 7.07715Z" fill="#002850"/>
<path id="Vector_6" d="M8.11934 16.4678C10.0465 16.4678 11.6088 14.8835 11.6088 12.9292C11.6088 10.9749 10.0465 9.39062 8.11934 9.39062C6.19216 9.39062 4.62988 10.9749 4.62988 12.9292C4.62988 14.8835 6.19216 16.4678 8.11934 16.4678Z" fill="#002850"/>
<path id="Vector_7" d="M17.3698 16.4678C19.297 16.4678 20.8593 14.8835 20.8593 12.9292C20.8593 10.9749 19.297 9.39062 17.3698 9.39062C15.4427 9.39062 13.8804 10.9749 13.8804 12.9292C13.8804 14.8835 15.4427 16.4678 17.3698 16.4678Z" fill="#002850"/>
<path id="Vector_8" d="M26.6203 16.4678C28.5475 16.4678 30.1098 14.8835 30.1098 12.9292C30.1098 10.9749 28.5475 9.39062 26.6203 9.39062C24.6931 9.39062 23.1309 10.9749 23.1309 12.9292C23.1309 14.8835 24.6931 16.4678 26.6203 16.4678Z" fill="#002850"/>
<path id="Vector_9" d="M35.8806 16.4678C37.8077 16.4678 39.37 14.8835 39.37 12.9292C39.37 10.9749 37.8077 9.39062 35.8806 9.39062C33.9534 9.39062 32.3911 10.9749 32.3911 12.9292C32.3911 14.8835 33.9534 16.4678 35.8806 16.4678Z" fill="#002850"/>
<path id="Vector_10" d="M8.11934 35.229C10.0465 35.229 11.6088 33.6447 11.6088 31.6904C11.6088 29.7361 10.0465 28.1519 8.11934 28.1519C6.19216 28.1519 4.62988 29.7361 4.62988 31.6904C4.62988 33.6447 6.19216 35.229 8.11934 35.229Z" fill="#002850"/>
<path id="Vector_11" d="M17.3698 35.229C19.297 35.229 20.8593 33.6447 20.8593 31.6904C20.8593 29.7361 19.297 28.1519 17.3698 28.1519C15.4427 28.1519 13.8804 29.7361 13.8804 31.6904C13.8804 33.6447 15.4427 35.229 17.3698 35.229Z" fill="#002850"/>
<path id="Vector_12" d="M26.6203 35.229C28.5475 35.229 30.1098 33.6447 30.1098 31.6904C30.1098 29.7361 28.5475 28.1519 26.6203 28.1519C24.6931 28.1519 23.1309 29.7361 23.1309 31.6904C23.1309 33.6447 24.6931 35.229 26.6203 35.229Z" fill="#002850"/>
<path id="Vector_13" d="M35.8806 35.229C37.8077 35.229 39.37 33.6447 39.37 31.6904C39.37 29.7361 37.8077 28.1519 35.8806 28.1519C33.9534 28.1519 32.3911 29.7361 32.3911 31.6904C32.3911 33.6447 33.9534 35.229 35.8806 35.229Z" fill="#002850"/>
<path id="Vector_14" d="M8.11934 53.9902C10.0465 53.9902 11.6088 52.406 11.6088 50.4517C11.6088 48.4974 10.0465 46.9131 8.11934 46.9131C6.19216 46.9131 4.62988 48.4974 4.62988 50.4517C4.62988 52.406 6.19216 53.9902 8.11934 53.9902Z" fill="#002850"/>
<path id="Vector_15" d="M17.3698 53.9902C19.297 53.9902 20.8593 52.406 20.8593 50.4517C20.8593 48.4974 19.297 46.9131 17.3698 46.9131C15.4427 46.9131 13.8804 48.4974 13.8804 50.4517C13.8804 52.406 15.4427 53.9902 17.3698 53.9902Z" fill="#002850"/>
<path id="Vector_16" d="M26.6203 53.9902C28.5475 53.9902 30.1098 52.406 30.1098 50.4517C30.1098 48.4974 28.5475 46.9131 26.6203 46.9131C24.6931 46.9131 23.1309 48.4974 23.1309 50.4517C23.1309 52.406 24.6931 53.9902 26.6203 53.9902Z" fill="#002850"/>
<path id="Vector_17" d="M35.8806 53.9902C37.8077 53.9902 39.37 52.406 39.37 50.4517C39.37 48.4974 37.8077 46.9131 35.8806 46.9131C33.9534 46.9131 32.3911 48.4974 32.3911 50.4517C32.3911 52.406 33.9534 53.9902 35.8806 53.9902Z" fill="#002850"/>
<path id="Vector_18" d="M3.48945 25.8481C5.41663 25.8481 6.97891 24.2639 6.97891 22.3096C6.97891 20.3553 5.41663 18.771 3.48945 18.771C1.56228 18.771 0 20.3553 0 22.3096C0 24.2639 1.56228 25.8481 3.48945 25.8481Z" fill="#002850"/>
<path id="Vector_19" d="M12.7497 25.8481C14.6769 25.8481 16.2392 24.2639 16.2392 22.3096C16.2392 20.3553 14.6769 18.771 12.7497 18.771C10.8225 18.771 9.26025 20.3553 9.26025 22.3096C9.26025 24.2639 10.8225 25.8481 12.7497 25.8481Z" fill="#002850"/>
<path id="Vector_20" d="M22.0002 25.8481C23.9274 25.8481 25.4897 24.2639 25.4897 22.3096C25.4897 20.3553 23.9274 18.771 22.0002 18.771C20.073 18.771 18.5107 20.3553 18.5107 22.3096C18.5107 24.2639 20.073 25.8481 22.0002 25.8481Z" fill="#002850"/>
<path id="Vector_21" d="M31.2502 25.8481C33.1774 25.8481 34.7397 24.2639 34.7397 22.3096C34.7397 20.3553 33.1774 18.771 31.2502 18.771C29.323 18.771 27.7607 20.3553 27.7607 22.3096C27.7607 24.2639 29.323 25.8481 31.2502 25.8481Z" fill="#002850"/>
<path id="Vector_22" d="M40.5007 25.8481C42.4279 25.8481 43.9901 24.2639 43.9901 22.3096C43.9901 20.3553 42.4279 18.771 40.5007 18.771C38.5735 18.771 37.0112 20.3553 37.0112 22.3096C37.0112 24.2639 38.5735 25.8481 40.5007 25.8481Z" fill="#002850"/>
<path id="Vector_23" d="M3.48945 44.6094C5.41663 44.6094 6.97891 43.0251 6.97891 41.0708C6.97891 39.1165 5.41663 37.5322 3.48945 37.5322C1.56228 37.5322 0 39.1165 0 41.0708C0 43.0251 1.56228 44.6094 3.48945 44.6094Z" fill="#002850"/>
<path id="Vector_24" d="M12.7497 44.6094C14.6769 44.6094 16.2392 43.0251 16.2392 41.0708C16.2392 39.1165 14.6769 37.5322 12.7497 37.5322C10.8225 37.5322 9.26025 39.1165 9.26025 41.0708C9.26025 43.0251 10.8225 44.6094 12.7497 44.6094Z" fill="#002850"/>
<path id="Vector_25" d="M22.0002 44.6094C23.9274 44.6094 25.4897 43.0251 25.4897 41.0708C25.4897 39.1165 23.9274 37.5322 22.0002 37.5322C20.073 37.5322 18.5107 39.1165 18.5107 41.0708C18.5107 43.0251 20.073 44.6094 22.0002 44.6094Z" fill="#002850"/>
<path id="Vector_26" d="M31.2502 44.6094C33.1774 44.6094 34.7397 43.0251 34.7397 41.0708C34.7397 39.1165 33.1774 37.5322 31.2502 37.5322C29.323 37.5322 27.7607 39.1165 27.7607 41.0708C27.7607 43.0251 29.323 44.6094 31.2502 44.6094Z" fill="#002850"/>
<path id="Vector_27" d="M40.5007 44.6094C42.4279 44.6094 43.9901 43.0251 43.9901 41.0708C43.9901 39.1165 42.4279 37.5322 40.5007 37.5322C38.5735 37.5322 37.0112 39.1165 37.0112 41.0708C37.0112 43.0251 38.5735 44.6094 40.5007 44.6094Z" fill="#002850"/>
</g>
<defs>
<clipPath id="clip0_45_8481">
<rect width="44" height="54" fill="white"/>
</clipPath>
</defs>
</svg>
