<svg width="58" height="52" viewBox="0 0 58 52" fill="none" xmlns="http://www.w3.org/2000/svg">
<g id="Layer_1" opacity="0.75" clip-path="url(#clip0_45_876)">
<path id="Vector" d="M20.5146 7.06112C22.4772 7.06112 24.0682 5.48044 24.0682 3.53056C24.0682 1.58069 22.4772 0 20.5146 0C18.552 0 16.9609 1.58069 16.9609 3.53056C16.9609 5.48044 18.552 7.06112 20.5146 7.06112Z" fill="#002850"/>
<path id="Vector_2" d="M37.4755 7.06112C39.4381 7.06112 41.0291 5.48044 41.0291 3.53056C41.0291 1.58069 39.4381 0 37.4755 0C35.5129 0 33.9219 1.58069 33.9219 3.53056C33.9219 5.48044 35.5129 7.06112 37.4755 7.06112Z" fill="#002850"/>
<path id="Vector_3" d="M28.9999 18.7188C30.9625 18.7188 32.5536 17.1382 32.5536 15.1883C32.5536 13.2384 30.9625 11.6577 28.9999 11.6577C27.0373 11.6577 25.4463 13.2384 25.4463 15.1883C25.4463 17.1382 27.0373 18.7188 28.9999 18.7188Z" fill="#002850"/>
<path id="Vector_4" d="M12.039 18.7188C14.0016 18.7188 15.5926 17.1382 15.5926 15.1883C15.5926 13.2384 14.0016 11.6577 12.039 11.6577C10.0764 11.6577 8.48535 13.2384 8.48535 15.1883C8.48535 17.1382 10.0764 18.7188 12.039 18.7188Z" fill="#002850"/>
<path id="Vector_5" d="M45.9609 18.7188C47.9235 18.7188 49.5145 17.1382 49.5145 15.1883C49.5145 13.2384 47.9235 11.6577 45.9609 11.6577C43.9982 11.6577 42.4072 13.2384 42.4072 15.1883C42.4072 17.1382 43.9982 18.7188 45.9609 18.7188Z" fill="#002850"/>
<path id="Vector_6" d="M28.9999 40.7628C30.9625 40.7628 32.5536 39.1821 32.5536 37.2322C32.5536 35.2823 30.9625 33.7017 28.9999 33.7017C27.0373 33.7017 25.4463 35.2823 25.4463 37.2322C25.4463 39.1821 27.0373 40.7628 28.9999 40.7628Z" fill="#002850"/>
<path id="Vector_7" d="M12.039 40.7628C14.0016 40.7628 15.5926 39.1821 15.5926 37.2322C15.5926 35.2823 14.0016 33.7017 12.039 33.7017C10.0764 33.7017 8.48535 35.2823 8.48535 37.2322C8.48535 39.1821 10.0764 40.7628 12.039 40.7628Z" fill="#002850"/>
<path id="Vector_8" d="M45.9609 40.7628C47.9235 40.7628 49.5145 39.1821 49.5145 37.2322C49.5145 35.2823 47.9235 33.7017 45.9609 33.7017C43.9982 33.7017 42.4072 35.2823 42.4072 37.2322C42.4072 39.1821 43.9982 40.7628 45.9609 40.7628Z" fill="#002850"/>
<path id="Vector_9" d="M20.5146 52.0001C22.4772 52.0001 24.0682 50.4194 24.0682 48.4695C24.0682 46.5197 22.4772 44.939 20.5146 44.939C18.552 44.939 16.9609 46.5197 16.9609 48.4695C16.9609 50.4194 18.552 52.0001 20.5146 52.0001Z" fill="#002850"/>
<path id="Vector_10" d="M37.4755 52.0001C39.4381 52.0001 41.0291 50.4194 41.0291 48.4695C41.0291 46.5197 39.4381 44.939 37.4755 44.939C35.5129 44.939 33.9219 46.5197 33.9219 48.4695C33.9219 50.4194 35.5129 52.0001 37.4755 52.0001Z" fill="#002850"/>
<path id="Vector_11" d="M20.5146 29.5352C22.4772 29.5352 24.0682 27.9546 24.0682 26.0047C24.0682 24.0548 22.4772 22.4741 20.5146 22.4741C18.552 22.4741 16.9609 24.0548 16.9609 26.0047C16.9609 27.9546 18.552 29.5352 20.5146 29.5352Z" fill="#002850"/>
<path id="Vector_12" d="M3.55363 29.5352C5.51625 29.5352 7.10726 27.9546 7.10726 26.0047C7.10726 24.0548 5.51625 22.4741 3.55363 22.4741C1.59102 22.4741 0 24.0548 0 26.0047C0 27.9546 1.59102 29.5352 3.55363 29.5352Z" fill="#002850"/>
<path id="Vector_13" d="M37.4755 29.5352C39.4381 29.5352 41.0291 27.9546 41.0291 26.0047C41.0291 24.0548 39.4381 22.4741 37.4755 22.4741C35.5129 22.4741 33.9219 24.0548 33.9219 26.0047C33.9219 27.9546 35.5129 29.5352 37.4755 29.5352Z" fill="#002850"/>
<path id="Vector_14" d="M54.4364 29.5352C56.3991 29.5352 57.9901 27.9546 57.9901 26.0047C57.9901 24.0548 56.3991 22.4741 54.4364 22.4741C52.4738 22.4741 50.8828 24.0548 50.8828 26.0047C50.8828 27.9546 52.4738 29.5352 54.4364 29.5352Z" fill="#002850"/>
</g>
<defs>
<clipPath id="clip0_45_876">
<rect width="58" height="52" fill="white"/>
</clipPath>
</defs>
</svg>
