<svg width="45" height="52" viewBox="0 0 45 52" fill="none" xmlns="http://www.w3.org/2000/svg">
<g id="Layer_1" opacity="0.75" clip-path="url(#clip0_45_891)">
<path id="Vector" d="M31.3073 7.06112C33.238 7.06112 34.8031 5.48044 34.8031 3.53056C34.8031 1.58069 33.238 0 31.3073 0C29.3767 0 27.8115 1.58069 27.8115 3.53056C27.8115 5.48044 29.3767 7.06112 31.3073 7.06112Z" fill="#002850"/>
<path id="Vector_2" d="M41.5041 7.06112C43.4348 7.06112 44.9999 5.48044 44.9999 3.53056C44.9999 1.58069 43.4348 0 41.5041 0C39.5734 0 38.0083 1.58069 38.0083 3.53056C38.0083 5.48044 39.5734 7.06112 41.5041 7.06112Z" fill="#002850"/>
<path id="Vector_3" d="M31.3073 52.0001C33.238 52.0001 34.8031 50.4194 34.8031 48.4695C34.8031 46.5197 33.238 44.939 31.3073 44.939C29.3767 44.939 27.8115 46.5197 27.8115 48.4695C27.8115 50.4194 29.3767 52.0001 31.3073 52.0001Z" fill="#002850"/>
<path id="Vector_4" d="M41.5041 52.0001C43.4348 52.0001 44.9999 50.4194 44.9999 48.4695C44.9999 46.5197 43.4348 44.939 41.5041 44.939C39.5734 44.939 38.0083 46.5197 38.0083 48.4695C38.0083 50.4194 39.5734 52.0001 41.5041 52.0001Z" fill="#002850"/>
<path id="Vector_5" d="M3.4958 7.06112C5.42648 7.06112 6.99161 5.48044 6.99161 3.53056C6.99161 1.58069 5.42648 0 3.4958 0C1.56512 0 0 1.58069 0 3.53056C0 5.48044 1.56512 7.06112 3.4958 7.06112Z" fill="#002850"/>
<path id="Vector_6" d="M13.6926 7.06112C15.6233 7.06112 17.1884 5.48044 17.1884 3.53056C17.1884 1.58069 15.6233 0 13.6926 0C11.7619 0 10.1968 1.58069 10.1968 3.53056C10.1968 5.48044 11.7619 7.06112 13.6926 7.06112Z" fill="#002850"/>
<path id="Vector_7" d="M31.3073 22.044C33.238 22.044 34.8031 20.4633 34.8031 18.5135C34.8031 16.5636 33.238 14.9829 31.3073 14.9829C29.3767 14.9829 27.8115 16.5636 27.8115 18.5135C27.8115 20.4633 29.3767 22.044 31.3073 22.044Z" fill="#002850"/>
<path id="Vector_8" d="M41.5041 22.044C43.4348 22.044 44.9999 20.4633 44.9999 18.5135C44.9999 16.5636 43.4348 14.9829 41.5041 14.9829C39.5734 14.9829 38.0083 16.5636 38.0083 18.5135C38.0083 20.4633 39.5734 22.044 41.5041 22.044Z" fill="#002850"/>
<path id="Vector_9" d="M3.4958 22.044C5.42648 22.044 6.99161 20.4633 6.99161 18.5135C6.99161 16.5636 5.42648 14.9829 3.4958 14.9829C1.56512 14.9829 0 16.5636 0 18.5135C0 20.4633 1.56512 22.044 3.4958 22.044Z" fill="#002850"/>
<path id="Vector_10" d="M13.6926 22.044C15.6233 22.044 17.1884 20.4633 17.1884 18.5135C17.1884 16.5636 15.6233 14.9829 13.6926 14.9829C11.7619 14.9829 10.1968 16.5636 10.1968 18.5135C10.1968 20.4633 11.7619 22.044 13.6926 22.044Z" fill="#002850"/>
<path id="Vector_11" d="M3.4958 52.0001C5.42648 52.0001 6.99161 50.4194 6.99161 48.4695C6.99161 46.5197 5.42648 44.939 3.4958 44.939C1.56512 44.939 0 46.5197 0 48.4695C0 50.4194 1.56512 52.0001 3.4958 52.0001Z" fill="#002850"/>
<path id="Vector_12" d="M13.6926 52.0001C15.6233 52.0001 17.1884 50.4194 17.1884 48.4695C17.1884 46.5197 15.6233 44.939 13.6926 44.939C11.7619 44.939 10.1968 46.5197 10.1968 48.4695C10.1968 50.4194 11.7619 52.0001 13.6926 52.0001Z" fill="#002850"/>
<path id="Vector_13" d="M31.3073 37.0172C33.238 37.0172 34.8031 35.4365 34.8031 33.4866C34.8031 31.5367 33.238 29.9561 31.3073 29.9561C29.3767 29.9561 27.8115 31.5367 27.8115 33.4866C27.8115 35.4365 29.3767 37.0172 31.3073 37.0172Z" fill="#002850"/>
<path id="Vector_14" d="M41.5041 37.0172C43.4348 37.0172 44.9999 35.4365 44.9999 33.4866C44.9999 31.5367 43.4348 29.9561 41.5041 29.9561C39.5734 29.9561 38.0083 31.5367 38.0083 33.4866C38.0083 35.4365 39.5734 37.0172 41.5041 37.0172Z" fill="#002850"/>
<path id="Vector_15" d="M3.4958 37.0172C5.42648 37.0172 6.99161 35.4365 6.99161 33.4866C6.99161 31.5367 5.42648 29.9561 3.4958 29.9561C1.56512 29.9561 0 31.5367 0 33.4866C0 35.4365 1.56512 37.0172 3.4958 37.0172Z" fill="#002850"/>
<path id="Vector_16" d="M13.6926 37.0172C15.6233 37.0172 17.1884 35.4365 17.1884 33.4866C17.1884 31.5367 15.6233 29.9561 13.6926 29.9561C11.7619 29.9561 10.1968 31.5367 10.1968 33.4866C10.1968 35.4365 11.7619 37.0172 13.6926 37.0172Z" fill="#002850"/>
<path id="Vector_17" d="M17.1982 8.69434H0V13.3496H17.1982V8.69434Z" fill="#002850"/>
<path id="Vector_18" d="M45.0097 8.69434H27.8115V13.3496H45.0097V8.69434Z" fill="#002850"/>
<path id="Vector_19" d="M17.1982 38.6504H0V43.3056H17.1982V38.6504Z" fill="#002850"/>
<path id="Vector_20" d="M45.0097 38.6504H27.8115V43.3056H45.0097V38.6504Z" fill="#002850"/>
</g>
<defs>
<clipPath id="clip0_45_891">
<rect width="45" height="52" fill="white"/>
</clipPath>
</defs>
</svg>
