<svg width="45" height="52" viewBox="0 0 45 52" fill="none" xmlns="http://www.w3.org/2000/svg">
<g id="Layer_1" opacity="0.15" clip-path="url(#clip0_45_9121)">
<path id="Vector" d="M31.3073 52.0001C33.238 52.0001 34.8031 50.4194 34.8031 48.4695C34.8031 46.5197 33.238 44.939 31.3073 44.939C29.3767 44.939 27.8115 46.5197 27.8115 48.4695C27.8115 50.4194 29.3767 52.0001 31.3073 52.0001Z" fill="#002850"/>
<path id="Vector_2" d="M41.5041 52.0001C43.4348 52.0001 44.9999 50.4194 44.9999 48.4695C44.9999 46.5197 43.4348 44.939 41.5041 44.939C39.5734 44.939 38.0083 46.5197 38.0083 48.4695C38.0083 50.4194 39.5734 52.0001 41.5041 52.0001Z" fill="#002850"/>
<path id="Vector_3" d="M3.4958 52.0001C5.42648 52.0001 6.99161 50.4194 6.99161 48.4695C6.99161 46.5197 5.42648 44.939 3.4958 44.939C1.56512 44.939 0 46.5197 0 48.4695C0 50.4194 1.56512 52.0001 3.4958 52.0001Z" fill="#002850"/>
<path id="Vector_4" d="M13.6926 52.0001C15.6233 52.0001 17.1884 50.4194 17.1884 48.4695C17.1884 46.5197 15.6233 44.939 13.6926 44.939C11.7619 44.939 10.1968 46.5197 10.1968 48.4695C10.1968 50.4194 11.7619 52.0001 13.6926 52.0001Z" fill="#002850"/>
<path id="Vector_5" d="M17.4016 7.06112C19.3322 7.06112 20.8974 5.48044 20.8974 3.53056C20.8974 1.58069 19.3322 0 17.4016 0C15.4709 0 13.9058 1.58069 13.9058 3.53056C13.9058 5.48044 15.4709 7.06112 17.4016 7.06112Z" fill="#002850"/>
<path id="Vector_6" d="M27.5983 7.06112C29.529 7.06112 31.0941 5.48044 31.0941 3.53056C31.0941 1.58069 29.529 0 27.5983 0C25.6677 0 24.1025 1.58069 24.1025 3.53056C24.1025 5.48044 25.6677 7.06112 27.5983 7.06112Z" fill="#002850"/>
<path id="Vector_7" d="M31.104 8.69434H13.9058V13.3496H31.104V8.69434Z" fill="#002850"/>
<path id="Vector_8" d="M41.5041 32.6749C43.4348 32.6749 44.9999 31.0942 44.9999 29.1443C44.9999 27.1945 43.4348 25.6138 41.5041 25.6138C39.5734 25.6138 38.0083 27.1945 38.0083 29.1443C38.0083 31.0942 39.5734 32.6749 41.5041 32.6749Z" fill="#002850"/>
<path id="Vector_9" d="M31.3073 32.6749C33.238 32.6749 34.8031 31.0942 34.8031 29.1443C34.8031 27.1945 33.238 25.6138 31.3073 25.6138C29.3767 25.6138 27.8115 27.1945 27.8115 29.1443C27.8115 31.0942 29.3767 32.6749 31.3073 32.6749Z" fill="#002850"/>
<path id="Vector_10" d="M27.8018 23.9805L45 23.9805V19.3252H27.8018V23.9805Z" fill="#002850"/>
<path id="Vector_11" d="M13.6926 32.6749C15.6233 32.6749 17.1884 31.0942 17.1884 29.1443C17.1884 27.1945 15.6233 25.6138 13.6926 25.6138C11.7619 25.6138 10.1968 27.1945 10.1968 29.1443C10.1968 31.0942 11.7619 32.6749 13.6926 32.6749Z" fill="#002850"/>
<path id="Vector_12" d="M3.4958 32.6749C5.42648 32.6749 6.99161 31.0942 6.99161 29.1443C6.99161 27.1945 5.42648 25.6138 3.4958 25.6138C1.56512 25.6138 0 27.1945 0 29.1443C0 31.0942 1.56512 32.6749 3.4958 32.6749Z" fill="#002850"/>
<path id="Vector_13" d="M4.95911e-05 23.9805L17.1982 23.9805V19.3252H4.95911e-05V23.9805Z" fill="#002850"/>
<path id="Vector_14" d="M17.1982 38.6504H0V43.3056H17.1982V38.6504Z" fill="#002850"/>
<path id="Vector_15" d="M45.0097 38.6504H27.8115V43.3056H45.0097V38.6504Z" fill="#002850"/>
</g>
<defs>
<clipPath id="clip0_45_9121">
<rect width="45" height="52" fill="white"/>
</clipPath>
</defs>
</svg>
