<svg width="45" height="52" viewBox="0 0 45 52" fill="none" xmlns="http://www.w3.org/2000/svg">
<g id="Layer_1" opacity="0.15" clip-path="url(#clip0_45_928)">
<path id="Vector" d="M41.5041 7.06112C43.4348 7.06112 44.9999 5.48044 44.9999 3.53056C44.9999 1.58069 43.4348 0 41.5041 0C39.5734 0 38.0083 1.58069 38.0083 3.53056C38.0083 5.48044 39.5734 7.06112 41.5041 7.06112Z" fill="#002850"/>
<path id="Vector_2" d="M3.4958 7.06112C5.42648 7.06112 6.99161 5.48044 6.99161 3.53056C6.99161 1.58069 5.42648 0 3.4958 0C1.56512 0 0 1.58069 0 3.53056C0 5.48044 1.56512 7.06112 3.4958 7.06112Z" fill="#002850"/>
<path id="Vector_3" d="M41.5041 27.0318C43.4348 27.0318 44.9999 25.4511 44.9999 23.5013C44.9999 21.5514 43.4348 19.9707 41.5041 19.9707C39.5734 19.9707 38.0083 21.5514 38.0083 23.5013C38.0083 25.4511 39.5734 27.0318 41.5041 27.0318Z" fill="#002850"/>
<path id="Vector_4" d="M41.5041 17.0465C43.4348 17.0465 44.9999 15.4658 44.9999 13.5159C44.9999 11.566 43.4348 9.98535 41.5041 9.98535C39.5734 9.98535 38.0083 11.566 38.0083 13.5159C38.0083 15.4658 39.5734 17.0465 41.5041 17.0465Z" fill="#002850"/>
<path id="Vector_5" d="M3.4958 27.0318C5.42648 27.0318 6.99161 25.4511 6.99161 23.5013C6.99161 21.5514 5.42648 19.9707 3.4958 19.9707C1.56512 19.9707 0 21.5514 0 23.5013C0 25.4511 1.56512 27.0318 3.4958 27.0318Z" fill="#002850"/>
<path id="Vector_6" d="M3.4958 17.0465C5.42648 17.0465 6.99161 15.4658 6.99161 13.5159C6.99161 11.566 5.42648 9.98535 3.4958 9.98535C1.56512 9.98535 0 11.566 0 13.5159C0 15.4658 1.56512 17.0465 3.4958 17.0465Z" fill="#002850"/>
<path id="Vector_7" d="M22.5051 52.0001C24.4358 52.0001 26.0009 50.4194 26.0009 48.4695C26.0009 46.5197 24.4358 44.939 22.5051 44.939C20.5744 44.939 19.0093 46.5197 19.0093 48.4695C19.0093 50.4194 20.5744 52.0001 22.5051 52.0001Z" fill="#002850"/>
<path id="Vector_8" d="M12.3078 52.0001C14.2385 52.0001 15.8036 50.4194 15.8036 48.4695C15.8036 46.5197 14.2385 44.939 12.3078 44.939C10.3771 44.939 8.81201 46.5197 8.81201 48.4695C8.81201 50.4194 10.3771 52.0001 12.3078 52.0001Z" fill="#002850"/>
<path id="Vector_9" d="M32.7019 52.0001C34.6325 52.0001 36.1977 50.4194 36.1977 48.4695C36.1977 46.5197 34.6325 44.939 32.7019 44.939C30.7712 44.939 29.2061 46.5197 29.2061 48.4695C29.2061 50.4194 30.7712 52.0001 32.7019 52.0001Z" fill="#002850"/>
<path id="Vector_10" d="M41.5041 37.0172C43.4348 37.0172 44.9999 35.4365 44.9999 33.4866C44.9999 31.5367 43.4348 29.9561 41.5041 29.9561C39.5734 29.9561 38.0083 31.5367 38.0083 33.4866C38.0083 35.4365 39.5734 37.0172 41.5041 37.0172Z" fill="#002850"/>
<path id="Vector_11" d="M3.4958 37.0172C5.42648 37.0172 6.99161 35.4365 6.99161 33.4866C6.99161 31.5367 5.42648 29.9561 3.4958 29.9561C1.56512 29.9561 0 31.5367 0 33.4866C0 35.4365 1.56512 37.0172 3.4958 37.0172Z" fill="#002850"/>
<path id="Vector_12" d="M36.1973 38.6504H8.80225V43.3056H36.1973V38.6504Z" fill="#002850"/>
<path id="Vector_13" d="M36.1489 43.3056V0L31.5395 0L31.5395 43.3056H36.1489Z" fill="#002850"/>
<path id="Vector_14" d="M13.4604 43.3056L13.4604 0L8.85102 0L8.85102 43.3056H13.4604Z" fill="#002850"/>
</g>
<defs>
<clipPath id="clip0_45_928">
<rect width="45" height="52" fill="white"/>
</clipPath>
</defs>
</svg>
