<svg width="24" height="21" viewBox="0 0 24 21" fill="none" xmlns="http://www.w3.org/2000/svg">
<line x1="23.1802" y1="10.5" x2="1.52926e-05" y2="10.5" stroke="#8B663C"/>
<path fill-rule="evenodd" clip-rule="evenodd" d="M8.13721 0C9.27276 2.6432 10.8421 4.68642 12.5965 6.23869C16.1129 9.34997 20.3304 10.4515 23.1639 10.5091L23.1842 9.50933C20.553 9.45579 16.5735 8.42223 13.2591 5.48975C11.7088 4.11809 10.2946 2.32261 9.23113 -3.70582e-07L8.13721 0Z" fill="#8B663C"/>
<path fill-rule="evenodd" clip-rule="evenodd" d="M8.13721 21C9.27276 18.3568 10.8421 16.3136 12.5965 14.7613C16.1129 11.65 20.3304 10.5485 23.1639 10.4909L23.1842 11.4907C20.553 11.5442 16.5735 12.5778 13.2591 15.5102C11.7088 16.8819 10.2946 18.6774 9.23113 21L8.13721 21Z" fill="#8B663C"/>
</svg>
