<svg xmlns="http://www.w3.org/2000/svg" width="90" height="44" fill="none" viewBox="0 0 90 44" xml:space="preserve"><g fill="#8B663C" clip-path="url(#a)"><path d="M40.342 21.536c.194.535.383.626.793.62.388-.005 1.192-.16 2.2-.4.125-.033.255-.06.39-.097.177-.027.323 0 .415.193 2.46 5.12 11.63 9.63 14.895 9.63.895 0 2.152-.652 3.048-2.134.895-1.482 1.014-3.858.895-4.27-.119-.417-.28-.439-.48-.176-.151.203-.221.438-.453.78-.67 1.007-1.77 1.226-2.244 1.231-2.196.032-5.93-2.199-6.706-2.659-1.133-.711-2.476-1.739-3.517-3.092a6.443 6.443 0 0 1-.508-.766c-.021-.08.017-.123.081-.15 4.823-1.31 8.718-2.525 9.21-2.824.5-.306.301-.766-.664-.942-.626-.113-5.12-.129-8.454-.123-.01 0-.01-.006-.022-.006-.161 0-.188-.07-.172-.15.227-.486.507-.984.825-1.492 3.82-6.03 5.557-6.576 6.555-7.03a.472.472 0 0 1 .189-.038c.086.01.15.058.188.08.777.476 2.12 2.45 2.277 2.76.173.338.367.702.604.868 0 0 .313-.011.34-.156.043-.224-.113-1.01-.167-1.364-.308-1.84-2.223-7.084-2.989-8.245-.226-.337-.172-.396-.48-.23-.4.214-.944.749-1.1 1.145-.076.187-.097.62-.087.754.017.15-.054.14-.329.332-5.011 2.654-8.815 8.368-10.444 12.333-.102.187-.21.428-.405.428-1.93 0-3.96.53-4.229.605-.54.15-.874.283-.815.733.081.604 1.15 3.317 1.344 3.852h.016Z"/><path d="M89.142 28.192c-3.14-.476-8.081-2.616-12.267-5.003 2.335-3.595 2.972-5.87 3.43-7.49.044-.129.114-.145.2-.15 3.14-.07 4.71-1.15 5.05-1.295.393-.166.345-.653-.448-.942-5.114-1.872-8.454-2.386-8.89-2.472-.438-.085-1.004-.294-1.241-.08-.675.61-1.23 1.723-1.398 2.28-.07.235.114.652.67 1.08l-.011-.01c.064.058.118.101.113.197-.205.857-.755 2.558-2.163 5.469-.12.15-.254.139-.421.026-2.433-2.017-2.784-3.488-2.86-3.702-.091-.236.616-.332.14-1.124-.355-.588-2.573-.61-4.142.054 0 0-3.135 1.054-2.19 2.408.739 1.048 2.724 3.927 6.619 6.666.172.134.34.247.237.487-10.557 16.828-31.079 18.278-31.893 18.4-.853.13-1.268.723 0 .723 20.893 0 31.688-10.68 36.543-16.843 7.094 3.103 13.897 2.145 14.793 2.049.933-.102 1.586-.508.13-.728ZM39.036 38.941c.167-.556.793-2.659 1.014-3.349.097-.294-.08-.246-.167-.198-.593.332-2.012 1.343-2.223 1.311-.286-.043-.987-1.739-1.203-1.739-.215 0-.922 1.696-1.203 1.739-.21.032-1.629-.98-2.222-1.31-.081-.049-.26-.097-.167.197.22.69.846 2.793 1.014 3.35.027.085.075.117.145.09.346-.144 1.408-.61 2.433-.61s2.088.466 2.433.61c.07.027.119 0 .146-.09ZM30.097 38.974l-1.084-2.296-1.084 2.296-2.536.315 1.861 1.734-.48 2.488 2.239-1.225 2.239 1.225-.486-2.488 1.867-1.734-2.536-.315ZM21.633 38.974l-1.084-2.296-1.085 2.296-2.535.315 1.86 1.734-.48 2.488 2.24-1.225 2.238 1.225-.485-2.488 1.866-1.734-2.535-.315ZM13.168 38.974l-1.084-2.296L11 38.974l-2.536.315 1.867 1.734-.486 2.488 2.24-1.225 2.238 1.225-.486-2.488 1.867-1.734-2.536-.315ZM4.704 38.974 3.62 36.678l-1.084 2.296L0 39.289l1.867 1.734-.486 2.488 2.239-1.225 2.239 1.225-.48-2.488 1.86-1.734-2.535-.315ZM32.26 24.875h-.01c-.707 0-1.284.037-1.37.059-.546.133-.907.15-.918.599-.016.61.62 3.451.734 4.013.108.556.275.733.69.733.804 0 1.457.01 2.709-.102 7.18-.658 12.202-1.723 12.92-2.017.545-.225.42-.712-.513-1.027-.933-.316-8.939-1.734-9.775-1.878-.599-.102-.636-.129-.642-.337.108-3.751.227-8.283.216-9.642-.01-2.697 0-6.56-.01-8.754 0 0 .064-.369-.109-.545-.437-.434-3.63-1.37-4.17-1.568-.54-.198-.912-.187-1.057.198l-.054.46c.205 3.355 1.052 15.372 1.22 16.442.075.503.199 1.766.328 3.098 0 .14-.027.273-.194.273l.005-.005Z"/><path d="M1.165 18.904c.119.02.248-.011.33-.022.69-.08 2.092-.182 2.691-.123.67.064.67.465-.2.465-.868 0-1.742.332-2.012.664s.351 2.13.874 3.06c.518.932 2.455.471 2.951.402.146-.022.195.192.162.556-.075.873-.906 3.644-1.915 6.79-.21.658-.264 1.37.076 1.306.49-.097 1.688-.824 2.368-1.959.733-1.225 2.53-5.366 2.735-5.965.205-.6.183-1.038.717-1.242.534-.203 7.067-.958 8.07-1.155 1.01-.198 1.07-.08 1.48.711 2.222 4.275 3.69 6.346 8.857 9.808 1.095.733.772-.589.335-1.065s-2.39-3.644-4.5-9.187c-.22-.583-.086-.824.173-.947.194-.096 4.305-.364 5.222-.738.61-.252 1.144-.766 1.155-1.14.01-.348-1.15-.434-1.5-.466-1.926-.17-4.855-.503-5.357-.55-.734-.07-.95-.637-1.16-1.039-.518-.974-1.424-3.483-3.56-10.872-.168-.583-.292-.969-.405-1.241v-.006c-.205-.423-.485-.16-.998 1.156 0 0-.95 2.065-.955 3.339.022 2.493.707 6.196.95 7.523.178.973-.13.925-.497.947-.361.016-3.96-.065-4.429-.134-.47-.064-.674 0-.377-.947.296-.947 5.179-13.489 5.389-14.136.172-.53.345-.846-.038-1.087-.518-.331-3.29-1.284-3.83-1.482-.54-.198-.847-.187-.993.198-.264.701-4.839 15.378-5.103 16.576-.227 1.05-.335.931-1.209 1.001-.873.064-4.844.326-5.491.492-.561.145-.26.471-.011.509h.005Z"/></g><defs><clipPath id="a"><path fill="#fff" d="M0 0h90v43.714H0z"/></clipPath></defs></svg>