<svg width="141" height="27" viewBox="0 0 141 27" fill="none" xmlns="http://www.w3.org/2000/svg">
<line y1="-0.5" x2="141" y2="-0.5" transform="matrix(-1 8.74228e-08 8.74228e-08 1 141 13.5625)" stroke="#002850"/>
<path fill-rule="evenodd" clip-rule="evenodd" d="M117.001 0C118.83 3.29361 121.351 5.82967 124.152 7.74808C129.77 11.5967 136.495 12.9505 140.984 13.0212L141 12.0213C136.658 11.9529 130.137 10.6356 124.717 6.92307C122.179 5.18464 119.878 2.91906 118.153 -3.02237e-07L117.001 0Z" fill="#002850"/>
<path fill-rule="evenodd" clip-rule="evenodd" d="M117 26.5625C118.827 23.1392 121.342 20.501 124.139 18.5031C129.76 14.4873 136.49 13.0737 140.984 12.9999L141 13.9998C136.661 14.0711 130.141 15.4442 124.72 19.3168C122.177 21.134 119.869 23.5049 118.141 26.5625H117Z" fill="#002850"/>
</svg>
