<svg width="35" height="35" viewBox="0 0 35 35" fill="none" xmlns="http://www.w3.org/2000/svg">
<path d="M23.23 0C21.07 0 19.25 1.39 18.57 3.34H11.2L20.27 12.41V4.96C20.27 3.33 21.6 2 23.31 2C25.02 2 26.27 3.33 26.27 4.96V19H28.27V4.96C28.27 2.22 26.04 0 23.23 0ZM18.27 7.59L16.03 5.35H18.27V7.59Z" fill="#8B663C"/>
<path d="M14.27 9H12.27V11H14.27V9Z" fill="#8B663C"/>
<path d="M12.27 13H10.27V15H12.27V13Z" fill="#8B663C"/>
<path d="M16.27 13H14.27V15H16.27V13Z" fill="#8B663C"/>
<path d="M9.39014 18.7803H5.39014V19.7803C5.39014 25.1503 6.53014 29.6303 8.59014 32.3803L8.89014 32.7803H11.3901V34.7803H13.3901V32.7803H21.3901V34.7803H23.3901V32.7803H26.0101L26.2901 32.2303C28.3001 28.2003 29.4001 25.0203 29.4001 19.7803V18.7803H9.39014ZM24.7701 30.7803H9.91014C8.40014 28.5103 7.52014 25.0103 7.41014 20.7803H27.3801C27.2601 24.8303 26.3801 27.4803 24.7701 30.7803Z" fill="#8B663C"/>
</svg>
