<svg width="35" height="35" viewBox="0 0 35 35" fill="none" xmlns="http://www.w3.org/2000/svg">
<path d="M8.02011 28.2996L27.3901 4.92961L25.8901 3.59961L6.61011 26.8896L8.02011 28.2996Z" fill="#8B663C"/>
<path d="M16.65 16.3696L7.20996 4.92957L8.66996 3.55957L18.06 14.9496L16.65 16.3696Z" fill="#8B663C"/>
<path d="M31.3001 19.3896L26.5901 3.91965L28.5201 3.38965L33.2101 18.8096L31.3001 19.3896Z" fill="#8B663C"/>
<path d="M33.2099 18.87L27.7399 20.54L27.1699 18.62L32.6299 16.96L33.2099 18.87Z" fill="#8B663C"/>
<path d="M3.48007 19.3896L8.19007 3.91965L6.26007 3.38965L1.57007 18.8096L3.48007 19.3896Z" fill="#8B663C"/>
<path d="M1.57007 18.87L7.04007 20.54L7.61007 18.62L2.15007 16.96L1.57007 18.87Z" fill="#8B663C"/>
<path d="M6.47998 3.38965V20.3896V21.3896V27.3896V29.3896H28.48V27.3896V21.3896V20.3896V3.38965H6.47998ZM8.47998 5.38965H26.48V20.3896V21.3896V27.3896H8.47998V21.3896V20.3896V5.38965Z" fill="#8B663C"/>
</svg>
