<svg width="35" height="35" viewBox="0 0 35 35" fill="none" xmlns="http://www.w3.org/2000/svg">
<path d="M26.3899 23.3202C26.3899 20.2602 25.8399 17.2402 24.7999 14.4002H25.3899C27.0399 14.4002 28.3899 15.7502 28.3899 17.4002V23.4002H30.3899V17.4002C30.3899 14.6402 28.1499 12.4002 25.3899 12.4002H23.9699C23.5799 11.5602 23.1599 10.7402 22.6899 9.95016L21.7799 8.44016C20.6599 6.57016 18.6099 5.41016 16.3599 5.41016C14.1099 5.41016 12.1299 6.57016 10.9999 8.44016L10.4199 9.41016H6.38989V11.4102H9.28989C7.38989 15.0902 6.38989 19.1802 6.38989 23.3302V29.4102H26.3899V23.3302V23.3202ZM16.4199 7.40016C17.8799 7.40016 19.2499 8.17016 20.0199 9.40016H12.7599C13.5299 8.17016 14.8999 7.40016 16.4199 7.40016ZM24.3899 27.4002H8.38989V23.3202C8.38989 19.1302 9.49989 15.0202 11.5799 11.4002H21.2099C23.2899 15.0302 24.3999 19.1402 24.3999 23.3202V27.4002H24.3899Z" fill="#8B663C"/>
</svg>
