<svg width="35" height="35" viewBox="0 0 35 35" fill="none" xmlns="http://www.w3.org/2000/svg">
<path d="M27.3899 23.3896V5.38965H7.38989V27.3896H5.38989V29.3896H29.3899V27.3896H27.3899V23.3896ZM9.38989 22.3896V7.38965H25.3899V27.3896H9.38989V23.3896" fill="#8B663C"/>
<path d="M19.4999 20.9302C19.9799 21.6302 20.3199 22.3102 20.3199 22.8902C20.3199 24.5202 18.9899 25.8402 17.3699 25.8402C15.6199 25.8402 13.9099 24.3802 13.9099 22.8902C13.9099 22.4902 13.9899 22.1002 14.1299 21.7502C14.6199 23.0902 15.7199 23.7202 16.7599 23.7202C17.6399 23.7202 18.4699 23.2702 18.9799 22.5202C19.2999 22.0502 19.4699 21.5102 19.4999 20.9302ZM17.8199 14.2402C17.0399 16.5702 16.3699 17.5902 17.3699 20.1402C17.7399 21.0902 17.2699 21.7302 16.7599 21.7302C16.3299 21.7302 15.8599 21.2702 15.8599 20.1402C15.8599 17.2702 16.3299 16.8602 16.4099 16.8102C16.1399 16.9402 11.8999 19.0902 11.8999 22.9002C11.8999 25.6402 14.6299 27.8502 17.3599 27.8502C20.0899 27.8502 22.3099 25.6302 22.3099 22.9002C22.3099 19.6602 17.8099 16.9602 17.8099 14.2402H17.8199ZM16.4199 16.8002C16.4199 16.8002 16.4199 16.8002 16.4099 16.8002H16.4199Z" fill="#8B663C"/>
</svg>
