<svg width="35" height="35" viewBox="0 0 35 35" fill="none" xmlns="http://www.w3.org/2000/svg">
<g clip-path="url(#clip0_582_9539)">
<path d="M5.38989 27.3896H29.3899V29.3896H31.3899V15.3896H29.3899V19.3896H25.3099C24.8499 16.5596 22.3999 15.3896 19.4399 15.3896H11.3899V19.3896H9.28989C8.89989 17.4196 7.34989 15.8696 5.38989 15.4896V5.38965H3.38989V29.3896H5.38989V27.3896ZM13.3899 17.3896H19.4399C21.2899 17.3896 22.8499 17.6696 23.2699 19.3896H13.3899V17.3896ZM5.38989 17.5596C6.23989 17.8596 6.90989 18.5196 7.20989 19.3896H5.38989V17.5596ZM5.38989 21.3896H29.3899V25.3896H5.38989V21.3896Z" fill="#8B663C"/>
</g>
<defs>
<clipPath id="clip0_582_9539">
<rect width="34.78" height="34.78" fill="white"/>
</clipPath>
</defs>
</svg>
