<svg width="35" height="35" viewBox="0 0 35 35" fill="none" xmlns="http://www.w3.org/2000/svg">
<path d="M11.1199 29.3896H15.1799V21.3896H12.6699C10.6699 18.6696 10.6699 16.1096 12.6699 13.3896H15.1799V5.38965H11.1199C8.84994 5.38965 6.84994 6.93965 6.26994 9.16965C4.82994 14.6296 4.82994 20.1596 6.26994 25.6196C6.85994 27.8396 8.84994 29.3996 11.1199 29.3996V29.3896ZM8.19994 9.67965C8.54994 8.32965 9.74994 7.38965 11.1199 7.38965H13.1799V11.3896H11.6999L11.3999 11.7696C8.45994 15.4496 8.45994 19.3396 11.3999 23.0196L11.6999 23.3996H13.1799V27.3996H11.1199C9.75994 27.3996 8.55994 26.4597 8.19994 25.1096C6.84994 19.9896 6.84994 14.7996 8.19994 9.67965Z" fill="#8B663C"/>
<path d="M24.4699 10.0997L25.7699 11.3897H17.1799V13.3897H25.7699L24.4699 14.6797L25.8899 16.0997L29.5899 12.3897L25.8899 8.67969L24.4699 10.0997Z" fill="#8B663C"/>
<path d="M21.89 20.0997L20.47 18.6797L16.77 22.3897L20.47 26.0997L21.89 24.6797L20.59 23.3897H29.18V21.3897H20.59L21.89 20.0997Z" fill="#8B663C"/>
</svg>
