<svg width="35" height="35" viewBox="0 0 35 35" fill="none" xmlns="http://www.w3.org/2000/svg">
<path d="M29.3901 5.38965H5.39014V27.3896H11.3901V29.3896H13.3901V27.3896H21.3901V29.3896H23.3901V27.3896H29.3901V5.38965ZM27.3901 25.3896H7.39014V7.38965H27.3901V25.3896Z" fill="#8B663C"/>
<path d="M14.3901 20.2496V22.3896H16.3901V20.2496C17.7901 19.8896 18.8801 18.7896 19.2501 17.3896H21.3901V15.3896H19.2501C18.8901 13.9896 17.7901 12.8996 16.3901 12.5296V10.3896H14.3901V12.5296C12.9901 12.8896 11.9001 13.9896 11.5301 15.3896H9.39014V17.3896H11.5301C11.8901 18.7896 12.9901 19.8796 14.3901 20.2496ZM15.3901 14.3896C16.4901 14.3896 17.3901 15.2896 17.3901 16.3896C17.3901 17.4896 16.4901 18.3896 15.3901 18.3896C14.2901 18.3896 13.3901 17.4896 13.3901 16.3896C13.3901 15.2896 14.2901 14.3896 15.3901 14.3896Z" fill="#8B663C"/>
<path d="M25.3901 15.3896H23.3901V17.3896H25.3901V15.3896Z" fill="#8B663C"/>
<path d="M25.3901 19.3896H23.3901V21.3896H25.3901V19.3896Z" fill="#8B663C"/>
<path d="M25.3901 11.3896H23.3901V13.3896H25.3901V11.3896Z" fill="#8B663C"/>
</svg>
