<svg width="35" height="35" viewBox="0 0 35 35" fill="none" xmlns="http://www.w3.org/2000/svg">
<path d="M7.38989 27.3896H27.3899V29.3896H29.3899V15.3896H27.3899V19.3896H25.3099C24.8499 16.5596 22.3999 15.3896 19.4399 15.3896H13.3899V19.3896H11.2899C10.8999 17.4196 9.34989 15.8696 7.38989 15.4896V9.38965H5.38989V26.3896V21.3896V29.3896H7.38989V27.3896ZM15.3899 17.3896H19.4399C21.2899 17.3896 22.8499 17.6696 23.2699 19.3896H15.3899V17.3896ZM7.38989 17.5596C8.23989 17.8596 8.90989 18.5196 9.20989 19.3896H7.38989V17.5596ZM7.38989 21.3896H27.3899V25.3896H7.38989V21.3896Z" fill="#8B663C"/>
</svg>
