<svg width="35" height="35" viewBox="0 0 35 35" fill="none" xmlns="http://www.w3.org/2000/svg">
<path d="M7.39014 5.38965V29.3896H27.3901V5.38965H7.39014ZM25.3901 21.3896V27.3896H9.39014V7.38965H25.3901V21.3896Z" fill="#8B663C"/>
<path d="M17.3902 12.3896C14.8602 12.3896 12.4702 13.3796 10.6802 15.1696L12.0902 16.5796C13.5002 15.1696 15.3802 14.3896 17.3802 14.3896C19.3802 14.3896 21.2602 15.1696 22.6702 16.5796L24.0802 15.1696C22.2902 13.3796 19.9102 12.3896 17.3702 12.3896H17.3902Z" fill="#8B663C"/>
<path d="M13.6802 17.9304L15.0902 19.3404C16.3502 18.0804 18.4102 18.0804 19.6802 19.3404L21.0902 17.9304C19.0502 15.8904 15.7202 15.8904 13.6802 17.9304Z" fill="#8B663C"/>
<path d="M15.6802 21.0995L17.0902 22.5195C17.2502 22.3595 17.5102 22.3595 17.6802 22.5195L19.0902 21.0995C18.1502 20.1595 16.6202 20.1595 15.6802 21.0995Z" fill="#8B663C"/>
</svg>
